<svg id="Layer_1" data-name="Layer 1" xmlns="http://www.w3.org/2000/svg" xmlns:xlink="http://www.w3.org/1999/xlink" width="350.12" height="162.21" viewBox="0 0 350.12 162.21"><defs><linearGradient id="linear-gradient" x1="300.41" y1="807.32" x2="341.92" y2="709.19" gradientTransform="translate(-6.26 -626.31)" gradientUnits="userSpaceOnUse"><stop offset="0" stop-color="#dba731"/><stop offset="0.16" stop-color="#d89d2d"/><stop offset="0.3" stop-color="#a46b1f"/><stop offset="0.47" stop-color="#f3f3b4"/><stop offset="0.69" stop-color="#d5b761"/><stop offset="0.83" stop-color="#a7701f"/><stop offset="1" stop-color="#d0ab54"/></linearGradient><linearGradient id="linear-gradient-2" x1="303.05" y1="808.43" x2="344.56" y2="710.3" xlink:href="#linear-gradient"/><linearGradient id="linear-gradient-3" x1="299.62" y1="806.98" x2="341.14" y2="708.86" xlink:href="#linear-gradient"/><linearGradient id="linear-gradient-4" x1="294.97" y1="805.02" x2="336.49" y2="706.89" xlink:href="#linear-gradient"/><linearGradient id="linear-gradient-5" x1="299.81" y1="807.06" x2="341.32" y2="708.93" xlink:href="#linear-gradient"/><linearGradient id="linear-gradient-6" x1="298.43" y1="806.48" x2="339.95" y2="708.35" xlink:href="#linear-gradient"/><linearGradient id="linear-gradient-7" x1="294.82" y1="804.95" x2="336.34" y2="706.82" xlink:href="#linear-gradient"/><linearGradient id="linear-gradient-8" x1="269.11" y1="732.6" x2="356.58" y2="746.19" gradientTransform="translate(-3.05 -626.5)" xlink:href="#linear-gradient"/><linearGradient id="linear-gradient-9" x1="267.99" y1="739.89" x2="355.45" y2="753.48" gradientTransform="translate(-3.05 -626.5)" xlink:href="#linear-gradient"/><linearGradient id="linear-gradient-10" x1="265.34" y1="756.9" x2="352.81" y2="770.49" gradientTransform="translate(-3.05 -626.5)" xlink:href="#linear-gradient"/></defs><path d="M3.22,118.53A21.61,21.61,0,0,1,4.92,110,22.66,22.66,0,0,1,9.52,103a22,22,0,0,1,6.88-4.67,20.71,20.71,0,0,1,8.44-1.7,21.16,21.16,0,0,1,8.45,1.7A22.7,22.7,0,0,1,40.1,103,22.08,22.08,0,0,1,44.7,110a21.75,21.75,0,0,1,1.7,8.58v21.14H39.15v-4.73c-3.09,3-7.25,5.36-14.31,5.36A22.17,22.17,0,0,1,16,138.67,19.8,19.8,0,0,1,9.15,134a20.16,20.16,0,0,1-4.35-6.93A22.14,22.14,0,0,1,3.22,118.53Zm7.06.12a14.35,14.35,0,0,0,1.14,5.74,15.75,15.75,0,0,0,3.08,4.73,15.11,15.11,0,0,0,4.61,3.21,13,13,0,0,0,5.61,1.2,15.4,15.4,0,0,0,5.61-1.07,14.89,14.89,0,0,0,4.6-3.09A14.56,14.56,0,0,0,38,124.64a15.45,15.45,0,0,0,1.13-6A14.79,14.79,0,0,0,38,112.94a15.48,15.48,0,0,0-3.09-4.73,15,15,0,0,0-4.6-3.15,13.71,13.71,0,0,0-11.22,0,15.73,15.73,0,0,0-4.61,3.15,14,14,0,0,0-3.08,4.73,13.93,13.93,0,0,0-1.14,5.73Z" transform="translate(-3.21 0.01)" style="fill:#1e76bd"/><path d="M89.83,118.67a21.83,21.83,0,0,1,13.11-20.23,20.87,20.87,0,0,1,8.39-1.76,19.56,19.56,0,0,1,8.38,1.76,22.28,22.28,0,0,1,6.81,4.67,23,23,0,0,1,4.6,6.93,22.51,22.51,0,0,1-4.6,24.2,21.51,21.51,0,0,1-15.19,6.43,19.54,19.54,0,0,1-8.39-1.76,21.83,21.83,0,0,1-13.11-20.24Zm7.12,0a14.81,14.81,0,0,0,1.14,5.8,14,14,0,0,0,3.09,4.73,14.56,14.56,0,0,0,4.54,3.22,12.87,12.87,0,0,0,5.54,1.19,12.69,12.69,0,0,0,5.55-1.19,14.79,14.79,0,0,0,4.54-3.22,15.48,15.48,0,0,0,3.09-4.73,15,15,0,0,0,1.13-5.8,15.31,15.31,0,0,0-1.13-5.79,15,15,0,0,0-7.63-7.95,13,13,0,0,0-5.55-1.19,12.64,12.64,0,0,0-5.51,1.23,14.56,14.56,0,0,0-4.54,3.22,14,14,0,0,0-3.09,4.73A14.74,14.74,0,0,0,97,118.67Z" transform="translate(-3.21 0.01)" style="fill:#1e76bd"/><path d="M136,98.1h6.68v3.57a16.16,16.16,0,0,1,5-3.53A15.49,15.49,0,0,1,153.89,97v7.12c-4.34,0-8.44,2-9.95,6.37-.82,2.27-.45,4.54-.45,6.93v22.24h-7.43V98.1Z" transform="translate(-3.21 0.01)" style="fill:#1e76bd"/><path d="M200,115.44V87.51h-6.8v15.16a22.48,22.48,0,0,0-5.93-3.9A20.7,20.7,0,0,0,178.84,97a19.55,19.55,0,0,0-8.39,1.77,22.08,22.08,0,0,0,0,40.46,20.71,20.71,0,0,0,8.39,1.77,19.54,19.54,0,0,0,8.38-1.77,22.43,22.43,0,0,0,6.81-4.66,23.22,23.22,0,0,0,4.6-6.93,22,22,0,0,0,1.7-8.64A35.51,35.51,0,0,0,200,115.44Zm-8,9.45a14.45,14.45,0,0,1-3.09,4.73,15.73,15.73,0,0,1-4.54,3.21,13.41,13.41,0,0,1-11.09,0,14.53,14.53,0,0,1-4.54-3.21,15.12,15.12,0,0,1-3.09-4.73,15.32,15.32,0,0,1,0-11.6,14.1,14.1,0,0,1,3.09-4.72,15.31,15.31,0,0,1,4.54-3.22,13.41,13.41,0,0,1,11.09,0,14.79,14.79,0,0,1,4.54,3.22A15.16,15.16,0,0,1,192,124.89Z" transform="translate(-3.21 0.01)" style="fill:#1e76bd"/><path d="M67.14,83.73V90.1s-4.6-.13-6.68,1.32a7.13,7.13,0,0,0-3.15,6.18v.25h9.83v6.56H57.31v35H50.25v-41c0-2.83.44-8.69,5.73-12.22C60.08,83.48,64.68,83.6,67.14,83.73Z" transform="translate(-3.21 0.01)" style="fill:#1e76bd"/><path d="M86.93,83.73V90.1s-4.6-.13-6.68,1.32A7.13,7.13,0,0,0,77.1,97.6v.25h9.83v6.56H77.1v35H70v-41c0-2.83.44-8.69,5.73-12.22C79.93,83.48,84.54,83.6,86.93,83.73Z" transform="translate(-3.21 0.01)" style="fill:#1e76bd"/><path d="M169.63,71.44l1.71-3.72,1.19.63.19.06.25.32.07.12v.26l-.07.06Z" transform="translate(-3.21 0.01)" style="fill:#ec448f"/><polygon points="183.37 57.84 186.08 60.16 182.05 60.67 183.37 57.84" style="fill:#d71d5b"/><polygon points="180.03 66.16 183.37 57.84 178.08 60.73 180.03 66.16" style="fill:#d71d5b"/><polygon points="170.96 70.94 168.12 67.73 172.78 67.47 172.53 68.23 170.96 70.94" style="fill:#d71d5b"/><polygon points="171.52 54.3 174.49 63.38 176.82 56.95 171.52 54.3" style="fill:#d71d5b"/><polygon points="170.96 70.94 180.03 66.16 176.82 56.95 170.96 70.94" style="fill:#ec448f"/><path d="M154.32,52.28l.25-1.26.5.18h.07l.12.13v.19h0Z" transform="translate(-3.21 0.01)" style="fill:#1e76bd"/><polygon points="157.03 46.42 158.22 47.24 156.65 47.63 157.03 46.42" style="fill:#1e76bd"/><polygon points="156.02 49.9 157.03 46.42 155.01 47.81 156.02 49.9" style="fill:#194783"/><polygon points="152.55 52.23 151.29 51.02 153.18 50.77 153.12 51.09 152.55 52.23" style="fill:#194783"/><polygon points="152.74 46.37 153.69 49.01 154.38 46.37 152.74 46.37" style="fill:#194783"/><polygon points="152.55 52.23 156.02 49.9 154.38 46.37 152.55 52.23" style="fill:#1e76bd"/><path d="M184.64,56.67l2.45-4.29,1.26.7.19.06.26.31.06.13v.25l-.13.07Z" transform="translate(-3.21 0.01)" style="fill:#ec448f"/><polygon points="199.76 42.08 202.6 44.47 198.38 45.03 199.76 42.08" style="fill:#ec448f"/><polygon points="196.3 50.77 199.76 42.08 194.28 45.03 196.3 50.77" style="fill:#d71d5b"/><polygon points="186.84 55.76 183.88 52.41 188.73 52.16 188.48 52.98 186.84 55.76" style="fill:#d71d5b"/><polygon points="188.86 38.1 191.32 45.98 193.08 39.87 188.86 38.1" style="fill:#d71d5b"/><polygon points="186.84 55.76 196.3 50.77 193.08 39.87 186.84 55.76" style="fill:#ec448f"/><polygon points="109.43 67.73 110.07 71.08 111.52 70.25 109.43 67.73" style="fill:#f05c2b"/><polygon points="114.29 69.36 114.48 70.44 113.85 70 114.29 69.36" style="fill:#f05c2b"/><polygon points="113.41 69.25 109.24 71.52 110.25 72.39 110.25 72.39 112.71 72.89 114.29 69.36 113.41 69.25" style="fill:#f59324"/><path d="M113.47,72.38" transform="translate(-3.21 0.01)" style="fill:none"/><polygon points="112.27 69.88 110 66.97 110.25 72.39 112.27 69.88" style="fill:#f9b027"/><polyline points="110.25 72.39 108.24 75.42 109.24 71.52" style="fill:#f59324"/><polygon points="122.23 59.66 123.11 63.76 124.94 62.81 122.23 59.66" style="fill:#f05c2b"/><polygon points="128.34 61.67 128.6 63.01 127.78 62.49 128.34 61.67" style="fill:#f05c2b"/><polygon points="127.27 61.49 122.04 64.33 123.3 65.47 123.3 65.47 126.39 66.09 128.34 61.67 127.27 61.49" style="fill:#f59324"/><path d="M126.52,65.45" transform="translate(-3.21 0.01)" style="fill:none"/><polygon points="125.82 62.24 122.99 58.66 123.3 65.47 125.82 62.24" style="fill:#f9b027"/><polyline points="123.3 65.47 120.78 69.25 122.04 64.33" style="fill:#f59324"/><polygon points="154.32 88.03 153.87 90.17 154.95 90.05 154.32 88.03" style="fill:#f05c2b"/><polygon points="156.84 90.23 156.71 90.92 156.39 90.48 156.84 90.23" style="fill:#f05c2b"/><polygon points="156.33 89.92 153.24 90.23 153.62 91.06 153.62 91.06 154.95 91.94 156.84 90.23 156.33 89.92" style="fill:#f59324"/><path d="M156.84,91" transform="translate(-3.21 0.01)" style="fill:none"/><polygon points="155.51 89.98 154.88 87.64 153.62 91.06 155.51 89.98" style="fill:#f9b027"/><polyline points="153.62 91.06 151.6 92.38 153.24 90.23" style="fill:#f59324"/><polygon points="144.04 50.52 144.73 53.98 146.31 53.16 144.04 50.52" style="fill:#f05c2b"/><polygon points="149.15 52.23 149.33 53.35 148.71 52.91 149.15 52.23" style="fill:#f05c2b"/><polygon points="148.2 52.09 143.91 54.42 144.92 55.38 144.92 55.38 147.44 55.88 149.15 52.23 148.2 52.09" style="fill:#f59324"/><path d="M148.14,55.36" transform="translate(-3.21 0.01)" style="fill:none"/><polygon points="147 52.73 144.67 49.7 144.92 55.38 147 52.73" style="fill:#f9b027"/><polyline points="144.92 55.38 142.84 58.52 143.91 54.42" style="fill:#f59324"/><polygon points="151.79 67.03 153.56 75.61 157.34 73.59 151.79 67.03" style="fill:#f05c2b"/><polygon points="164.4 71.27 164.97 74.03 163.27 72.89 164.4 71.27" style="fill:#f05c2b"/><polygon points="162.13 70.81 151.42 76.75 153.94 79.08 154 79.14 160.3 80.33 164.4 71.27 162.13 70.81" style="fill:#f59324"/><path d="M157.15,79.07" transform="translate(-3.21 0.01)" style="fill:none"/><polygon points="159.17 72.45 153.31 64.95 154 79.14 159.17 72.45" style="fill:#f9b027"/><polyline points="154 79.14 148.77 86.89 151.42 76.75" style="fill:#f59324"/><polygon points="173.48 41.7 175.12 49.83 178.71 47.88 173.48 41.7" style="fill:#f05c2b"/><polygon points="185.52 45.66 186.02 48.31 184.45 47.24 185.52 45.66" style="fill:#f05c2b"/><polygon points="183.31 45.28 173.1 50.9 175.5 53.16 175.56 53.16 181.55 54.3 185.52 45.66 183.31 45.28" style="fill:#f59324"/><path d="M178.75,53.16" transform="translate(-3.21 0.01)" style="fill:none"/><polygon points="180.54 46.8 174.93 39.67 175.56 53.16 180.54 46.8" style="fill:#f9b027"/><polyline points="175.56 53.16 170.58 60.6 173.1 50.9" style="fill:#f59324"/><polygon points="130.8 62.44 128.28 64.52 130.36 64.7 131.31 62.44 130.8 62.44" style="fill:#89be40"/><polyline points="138.12 57.45 136.41 56.88 137.36 55.7 138.05 57.4" style="fill:#89be40"/><polygon points="130.36 64.7 133.51 61.94 131.06 60.92 130.36 64.7" style="fill:#169447"/><polygon points="135.97 58.84 137.36 55.7 135.09 56.77 135.15 58.47 135.97 58.84" style="fill:#169447"/><polygon points="138.75 65.2 131.06 60.92 135.15 56.7 138.75 65.2" style="fill:#89be40"/><polygon points="174.3 72.97 171.4 74.8 173.54 75.23 174.8 73.03 174.3 72.97" style="fill:#89be40"/><polyline points="182.37 68.86 180.66 68.05 181.86 66.92 182.37 68.81" style="fill:#89be40"/><polygon points="173.54 75.23 177.07 72.83 174.74 71.44 173.54 75.23" style="fill:#169447"/><polygon points="179.97 69.94 181.86 66.92 179.4 67.73 179.21 69.44 179.97 69.94" style="fill:#169447"/><polygon points="181.99 76.81 174.74 71.44 179.4 67.67 181.99 76.81" style="fill:#89be40"/><polygon points="187.53 62.81 182.74 66.84 186.71 66.97 188.54 62.81 187.53 62.81" style="fill:#89be40"/><polyline points="201.53 53.23 198.19 52.35 200.08 50.08 201.4 53.16" style="fill:#89be40"/><polygon points="186.71 66.97 192.7 61.8 188.04 59.98 186.71 66.97" style="fill:#50b749"/><polygon points="197.31 55.88 200.08 50.08 195.73 52.16 195.79 55.24 197.31 55.88" style="fill:#169447"/><polygon points="202.79 67.42 188.04 59.98 195.79 52.09 202.79 67.42" style="fill:#99c73d"/><polygon points="152.3 86.83 149.02 88.47 151.29 89.09 152.8 86.95 152.3 86.83" style="fill:#89be40"/><polyline points="161.38 83.11 159.61 82.22 161 81.16 161.31 83.05" style="fill:#89be40"/><polygon points="151.29 89.09 155.32 86.89 152.93 85.31 151.29 89.09" style="fill:#50b749"/><polygon points="158.66 84.11 161 81.16 158.29 81.78 157.91 83.56 158.66 84.11" style="fill:#169447"/><polygon points="160.24 91.31 152.93 85.31 158.29 81.78 160.24 91.31" style="fill:#99c73d"/><polygon points="108.24 65.78 106.6 66.97 107.92 67.17 108.55 65.78 108.24 65.78" style="fill:#11a59c"/><polyline points="113.03 62.81 111.96 62.38 112.59 61.62 112.96 62.74" style="fill:#11a59c"/><polygon points="107.92 67.17 109.94 65.53 108.43 64.77 107.92 67.17" style="fill:#5cc5c3"/><polygon points="111.58 63.56 112.59 61.62 111.14 62.24 111.07 63.31 111.58 63.56" style="fill:#5cc5c3"/><polygon points="113.22 67.8 108.43 64.77 111.14 62.19 113.22 67.8" style="fill:#11a59c"/><polygon points="158.73 68.42 156.9 69.75 158.35 69.94 159.04 68.42 158.73 68.42" style="fill:#11a59c"/><polyline points="163.83 65.28 162.64 64.83 163.33 64.02 163.77 65.2" style="fill:#11a59c"/><polygon points="158.35 69.94 160.56 68.17 158.92 67.36 158.35 69.94" style="fill:#5cc5c3"/><polygon points="162.26 66.09 163.33 64.02 161.75 64.7 161.75 65.83 162.26 66.09" style="fill:#5cc5c3"/><polygon points="164.02 70.56 158.92 67.36 161.82 64.64 164.02 70.56" style="fill:#11a59c"/><polygon points="140.76 91.11 139.44 92 140.45 92.19 141.02 91.17 140.76 91.11" style="fill:#11a59c"/><polyline points="144.42 89.22 143.66 88.84 144.17 88.34 144.42 89.17" style="fill:#11a59c"/><polygon points="140.45 92.19 142.02 91.06 140.95 90.42 140.45 92.19" style="fill:#5cc5c3"/><polygon points="143.35 89.72 144.17 88.34 143.03 88.72 142.97 89.47 143.35 89.72" style="fill:#5cc5c3"/><polygon points="144.29 92.89 140.95 90.42 143.09 88.66 144.29 92.89" style="fill:#11a59c"/><polygon points="204.62 59.59 202.22 52.8 207.64 43.59 204.62 59.59" style="fill:#50b749"/><polygon points="210.23 55.51 204.37 60.98 207.64 43.59 210.23 55.51" style="fill:#169447"/><polygon points="206.57 61.99 204.18 70.06 202.91 62.3 206.57 61.99" style="fill:#99c73d"/><polygon points="203.61 44.59 197.05 38.67 202.91 51.53 203.61 44.59" style="fill:#169447"/><polygon points="206.57 61.87 205.69 64.95 211.49 61.62 206.57 61.87" style="fill:#169447"/><polygon points="211.49 61.62 202.91 62.3 210.23 55.44 211.49 61.62" style="fill:#75bb43"/><polygon points="213.76 50.77 216.66 53.3 214.14 53.48 213.76 50.77" style="fill:#169447"/><polygon points="209.72 53.35 214.39 54.94 211.49 61.62 209.72 53.35" style="fill:#169447"/><polygon points="209.72 53.35 213.76 50.77 214.39 54.94 209.72 53.35" style="fill:#8cc640"/><polygon points="204.49 35.45 202.91 51.53 207.64 43.59 204.49 35.45" style="fill:#8cc640"/><polygon points="150.53 63.13 150.15 59.16 154.25 54.94 150.53 63.13" style="fill:#50b749"/><polygon points="154.06 61.62 150.22 63.83 154.25 54.94 154.06 61.62" style="fill:#169447"/><polygon points="149.27 64.33 147.57 68.11 148.71 71.44 149.27 64.33" style="fill:#8cc640"/><polygon points="151.23 64.64 148.89 68.67 149.27 64.33 151.23 64.64" style="fill:#50b749"/><polygon points="151.98 54.94 149.27 50.97 150.72 58.59 151.98 54.94" style="fill:#169447"/><polygon points="151.29 64.58 150.41 66.16 153.94 65.08 151.29 64.58" style="fill:#169447"/><polygon points="153.94 65.08 149.27 64.33 154.06 61.62 153.94 65.08" style="fill:#8cc640"/><polygon points="156.58 59.53 157.78 61.23 156.46 61.05 156.58 59.53" style="fill:#169447"/><polygon points="154.13 60.41 156.39 61.87 153.94 65.08 154.13 60.41" style="fill:#169447"/><polygon points="154.13 60.41 156.58 59.53 156.39 61.87 154.13 60.41" style="fill:#8cc640"/><polygon points="153.62 50.15 150.72 58.59 154.25 54.94 153.62 50.15" style="fill:#8cc640"/><polygon points="129.04 71.58 129.42 70.75 128.28 71.27 129.04 71.58" style="fill:#999"/><polygon points="125.63 73.03 129.04 71.58 123.68 69.36 125.63 73.03" style="fill:#333"/><polygon points="119.46 73.08 119.39 73.91 120.21 73.03 119.46 73.08" style="fill:#333"/><polygon points="123.68 69.44 124.82 68.81 123.11 68.3 123.68 69.44" style="fill:#333"/><polygon points="120.72 73.08 119.46 73.08 120.91 71.77 120.72 73.08" style="fill:#999"/><polygon points="120.97 70.89 120.72 73.08 122.99 70.81 120.97 70.89" style="fill:#333"/><polygon points="123.11 68.3 120.91 70.89 125.63 73.03 123.11 68.3" style="fill:#999"/><polygon points="96.13 69.06 96.39 68.67 95.76 68.81 96.13 69.06" style="fill:#999"/><polygon points="94.24 69.5 96.13 69.06 93.55 67.47 94.24 69.5" style="fill:#333"/><polygon points="91.15 69 91.03 69.44 91.53 69.06 91.15 69" style="fill:#333"/><polygon points="93.61 67.47 94.24 67.28 93.42 66.84 93.61 67.47" style="fill:#333"/><polygon points="91.79 69.11 91.15 69 91.97 68.42 91.79 69.11" style="fill:#999"/><polygon points="92.1 67.98 91.79 69.11 93.11 68.17 92.1 67.98" style="fill:#333"/><polygon points="93.42 66.84 92.1 67.98 94.24 69.5 93.42 66.84" style="fill:#999"/><polygon points="187.91 45.73 189.49 45.41 187.53 44.66 187.91 45.73" style="fill:#999"/><polygon points="182.3 43.27 187.91 45.73 185.2 38.05 182.3 43.27" style="fill:#333"/><polygon points="175.56 36.72 174.36 37.34 176.44 37.53 175.56 36.72" style="fill:#333"/><polygon points="185.14 38.16 187.22 38.85 186.15 36.59 185.14 38.16" style="fill:#333"/><polygon points="176.95 38.1 175.56 36.72 178.96 37.16 176.95 38.1" style="fill:#999"/><polygon points="180.16 36.47 176.95 38.1 182.43 38.55 180.16 36.47" style="fill:#333"/><polygon points="186.15 36.59 180.16 36.47 182.3 43.27 186.15 36.59" style="fill:#999"/><polygon points="172.34 50.15 173.1 48.63 171.02 49.52 172.34 50.15" style="fill:#999"/><polygon points="166.23 52.53 172.34 50.15 162.83 45.92 166.23 52.53" style="fill:#333"/><polygon points="155.2 52.41 155.01 53.92 156.58 52.41 155.2 52.41" style="fill:#333"/><polygon points="162.89 45.98 164.97 44.91 161.94 43.91 162.89 45.98" style="fill:#333"/><polygon points="157.47 52.48 155.2 52.41 157.78 50.08 157.47 52.48" style="fill:#999"/><polygon points="157.91 48.51 157.47 52.48 161.56 48.51 157.91 48.51" style="fill:#333"/><polygon points="161.94 43.91 157.91 48.51 166.23 52.53 161.94 43.91" style="fill:#999"/><polygon points="181.36 78.58 181.99 76.69 179.65 78.19 181.36 78.58" style="fill:#999"/><polygon points="174.3 82.67 181.36 78.58 169.07 75.42 174.3 82.67" style="fill:#333"/><polygon points="160.87 84.63 160.87 86.45 162.57 84.38 160.87 84.63" style="fill:#333"/><polygon points="169.13 75.55 171.46 73.84 167.68 73.28 169.13 75.55" style="fill:#333"/><polygon points="163.58 84.25 160.87 84.63 163.64 81.34 163.58 84.25" style="fill:#999"/><polygon points="163.52 79.45 163.58 84.25 167.93 78.77 163.52 79.45" style="fill:#333"/><polygon points="167.68 73.28 163.52 79.45 174.3 82.67 167.68 73.28" style="fill:#999"/><polygon points="103.57 67.67 102 71.27 107.99 71.7 103.57 67.67" style="fill:#a0164f"/><polygon points="104.71 65.47 103.7 66.59 105.71 66.34 104.71 65.47" style="fill:#cc1862"/><polygon points="100.67 73.97 100.86 74.97 101.62 73.66 100.67 73.97" style="fill:#a0164f"/><polygon points="103.38 66.84 104.71 65.47 104.46 68.23 103.38 66.84" style="fill:#a0164f"/><polygon points="102.18 73.47 100.67 73.97 101.93 71.83 102.18 73.47" style="fill:#cc1862"/><polygon points="101.62 70.81 102.18 73.47 104.08 69.88 101.62 70.81" style="fill:#a0164f"/><polygon points="103.38 66.84 101.62 70.81 108.17 71.27 103.38 66.84" style="fill:#cc1862"/><polygon points="116.37 66.59 115.99 68.67 114.48 66.22 116.37 66.59" style="fill:#194783"/><polygon points="119.46 68.42 119.83 69.25 118.7 68.86 119.46 68.42" style="fill:#194783"/><polygon points="116.75 66.59 115.99 68.86 114.79 65.91 116.75 66.59" style="fill:#1e76bd"/><polygon points="116.75 69.25 119.02 68.23 119.46 68.42 118.76 70.06 116.75 69.25" style="fill:#1e76bd"/><polygon points="115.93 68.86 116.75 66.59 117.88 69.69 115.93 68.86" style="fill:#194783"/><polygon points="116.87 71.27 115.11 72.27 116.18 69.5 116.87 71.27" style="fill:#194783"/><polygon points="116.75 70.94 115.93 68.86 118.76 70.06 116.75 70.94" style="fill:#1e76bd"/><polygon points="84.35 58.77 84.09 60.3 82.96 58.52 84.35 58.77" style="fill:#194783"/><polygon points="86.62 60.1 86.87 60.73 86.05 60.41 86.62 60.1" style="fill:#194783"/><polygon points="84.6 58.77 84.09 60.41 83.21 58.27 84.6 58.77" style="fill:#1e76bd"/><polygon points="84.66 60.73 86.24 59.98 86.62 60.1 86.11 61.3 84.66 60.73" style="fill:#1e76bd"/><polygon points="84.03 60.41 84.6 58.77 85.42 60.98 84.03 60.41" style="fill:#194783"/><polygon points="84.66 62.19 83.46 62.88 84.22 60.85 84.66 62.19" style="fill:#194783"/><polygon points="84.6 61.94 84.03 60.41 86.11 61.3 84.6 61.94" style="fill:#1e76bd"/><polygon points="138.49 90.86 137.61 91.88 137.61 90.11 138.49 90.86" style="fill:#194783"/><polygon points="139.44 92.89 139.38 93.44 138.94 92.81 139.44 92.89" style="fill:#194783"/><polygon points="138.68 91.06 137.48 91.94 137.93 89.98 138.68 91.06" style="fill:#1e76bd"/><polygon points="137.8 92.44 139.25 92.63 139.44 92.89 138.56 93.52 137.8 92.44" style="fill:#1e76bd"/><polygon points="137.48 91.94 138.68 91.06 138.18 93 137.48 91.94" style="fill:#194783"/><polygon points="137.11 93.52 135.91 93.39 137.36 92.31 137.11 93.52" style="fill:#194783"/><polygon points="137.17 93.25 137.48 91.94 138.56 93.44 137.17 93.25" style="fill:#1e76bd"/><polygon points="97.21 66.47 97.27 69.19 94.68 66.66 97.21 66.47" style="fill:#194783"/><polygon points="101.68 67.8 102.31 68.67 100.74 68.55 101.68 67.8" style="fill:#194783"/><polygon points="97.65 66.41 97.33 69.44 94.94 66.16 97.65 66.41" style="fill:#1e76bd"/><polygon points="98.4 69.69 100.99 67.67 101.68 67.8 101.18 70 98.4 69.69" style="fill:#1e76bd"/><polygon points="97.21 69.44 97.65 66.41 99.92 69.81 97.21 69.44" style="fill:#194783"/><polygon points="99.1 72.08 97.14 73.84 97.71 70.06 99.1 72.08" style="fill:#194783"/><polygon points="98.84 71.77 97.21 69.44 101.18 70 98.84 71.77" style="fill:#1e76bd"/><polygon points="143.54 67.03 139.06 71.19 146.88 76.17 143.54 67.03" style="fill:#967f33"/><polygon points="146.44 64.64 144.36 65.53 147.19 66.72 146.44 64.64" style="fill:#c3ae43"/><polygon points="135.53 74.09 135.15 75.73 137.04 74.28 135.53 74.09" style="fill:#967f33"/><polygon points="143.72 65.66 146.44 64.64 144.36 68.48 143.72 65.66" style="fill:#967f33"/><polygon points="137.93 74.47 135.53 74.09 138.62 71.89 137.93 74.47" style="fill:#c3ae43"/><polygon points="138.87 70.19 137.93 74.47 142.78 70.63 138.87 70.19" style="fill:#af933c"/><polygon points="143.72 65.66 138.87 70.19 147.38 75.67 143.72 65.66" style="fill:#c3ae43"/><polygon points="90.96 62.94 89.33 64.52 92.29 66.41 90.96 62.94" style="fill:#967f33"/><polygon points="92.1 62.05 91.34 62.38 92.42 62.81 92.1 62.05" style="fill:#c3ae43"/><polygon points="87.94 65.66 87.81 66.22 88.51 65.72 87.94 65.66" style="fill:#967f33"/><polygon points="91.09 62.44 92.1 62.05 91.28 63.51 91.09 62.44" style="fill:#967f33"/><polygon points="88.89 65.78 87.94 65.66 89.14 64.77 88.89 65.78" style="fill:#c3ae43"/><polygon points="89.2 64.14 88.89 65.78 90.71 64.33 89.2 64.14" style="fill:#af933c"/><polygon points="91.09 62.44 89.2 64.14 92.48 66.22 91.09 62.44" style="fill:#c3ae43"/><polygon points="165.35 56.06 159.86 61.12 169.44 67.28 165.35 56.06" style="fill:#967f33"/><polygon points="168.94 53.1 166.35 54.17 169.82 55.63 168.94 53.1" style="fill:#c3ae43"/><polygon points="155.51 64.7 155.07 66.72 157.34 64.95 155.51 64.7" style="fill:#967f33"/><polygon points="165.6 54.37 168.94 53.1 166.35 57.84 165.6 54.37" style="fill:#967f33"/><polygon points="158.48 65.2 155.51 64.7 159.29 61.99 158.48 65.2" style="fill:#c3ae43"/><polygon points="159.61 59.91 158.48 65.2 164.46 60.41 159.61 59.91" style="fill:#af933c"/><polygon points="165.6 54.37 159.61 59.91 170.14 66.66 165.6 54.37" style="fill:#c3ae43"/><polygon points="90.65 60.3 90.15 60.92 91.22 60.73 90.65 60.3" style="fill:#f47d5e"/><polygon points="89.52 60.85 89.89 61.99 90.65 60.3 89.52 60.85" style="fill:#d0594f"/><polygon points="87.25 62.3 87.94 62.44 87.06 63.01 87.25 62.3" style="fill:#f47d5e"/><polygon points="89.26 60.03 88.7 61.37 88.13 59.53 89.26 60.03" style="fill:#d0594f"/><polygon points="87.94 63.01 87.25 62.3 88.76 62.3 87.94 63.01" style="fill:#d0594f"/><polygon points="89.89 61.99 87.94 63.01 89.26 60.03 89.89 61.99" style="fill:#f47d5e"/><polygon points="104.46 61.3 103.76 62.56 105.59 61.87 104.46 61.3" style="fill:#f47d5e"/><polygon points="102.75 62.69 103.82 64.52 104.46 61.3 102.75 62.69" style="fill:#d0594f"/><polygon points="99.41 65.97 100.61 65.97 99.29 67.22 99.41 65.97" style="fill:#f47d5e"/><polygon points="102 61.42 101.49 63.83 99.79 60.98 102 61.42" style="fill:#d0594f"/><polygon points="100.86 66.97 99.41 65.97 101.93 65.39 100.86 66.97" style="fill:#d0594f"/><polygon points="103.82 64.52 100.86 66.97 102 61.42 103.82 64.52" style="fill:#f47d5e"/><polygon points="193.14 77.94 189.93 80.22 194.22 80.14 193.14 77.94" style="fill:#f47d5e"/><polygon points="186.84 79.27 186.97 84.19 193.14 77.94 186.84 79.27" style="fill:#d0594f"/><polygon points="175.62 83.05 178.46 84.56 173.86 86.14 175.62 83.05" style="fill:#f47d5e"/><polygon points="187.16 74.8 183.12 80.33 182.56 70.69 187.16 74.8" style="fill:#d0594f"/><polygon points="177.83 87.45 175.62 83.05 182.18 85 177.83 87.45" style="fill:#d0594f"/><polygon points="186.97 84.19 177.83 87.53 187.16 74.8 186.97 84.19" style="fill:#f47d5e"/><polygon points="121.29 62.3 120.21 63.2 122.04 63.38 121.29 62.3" style="fill:#ec448f"/><polygon points="119.27 62.81 119.52 65.02 121.29 62.3 119.27 62.81" style="fill:#d71d5b"/><polygon points="119.14 61.3 117.82 63.31 117.44 59.98 119.14 61.3" style="fill:#d71d5b"/><polygon points="115.99 65.91 115.17 64.39 117.5 64.95 115.99 65.91" style="fill:#d71d5b"/><polygon points="119.52 65.02 115.99 65.91 119.14 61.3 119.52 65.02" style="fill:#ec448f"/><polygon points="172.53 85.06 170.64 86.33 173.67 86.83 172.53 85.06" style="fill:#1e76bd"/><polygon points="169.19 85.69 169.32 89.17 172.53 85.06 169.19 85.69" style="fill:#194783"/><polygon points="169.19 83.3 166.73 86.33 166.61 80.91 169.19 83.3" style="fill:#194783"/><polygon points="163.46 90.3 162.32 87.78 166.04 88.91 163.46 90.3" style="fill:#194783"/><polygon points="169.32 89.17 163.46 90.3 169.19 83.3 169.32 89.17" style="fill:#1e76bd"/><polygon points="150.53 89.72 149.33 90.3 151.04 90.81 150.53 89.72" style="fill:#ec448f"/><polygon points="148.52 89.86 148.33 91.81 150.53 89.72 148.52 89.86" style="fill:#d71d5b"/><polygon points="148.71 88.53 147.07 90.05 147.38 87.02 148.71 88.53" style="fill:#d71d5b"/><polygon points="144.86 92 144.36 90.55 146.44 91.44 144.86 92" style="fill:#d71d5b"/><polygon points="148.33 91.81 144.86 92 148.71 88.53 148.33 91.81" style="fill:#ec448f"/><polygon points="135.78 66.34 134.58 68.48 137.74 67.36 135.78 66.34" style="fill:#ec448f"/><polygon points="132.88 68.67 134.71 71.83 135.78 66.34 132.88 68.67" style="fill:#d71d5b"/><polygon points="131.56 66.53 130.74 70.63 127.9 65.78 131.56 66.53" style="fill:#d71d5b"/><polygon points="129.67 75.92 127.21 74.28 131.5 73.34 129.67 75.92" style="fill:#d71d5b"/><polygon points="134.71 71.83 129.67 75.92 131.56 66.53 134.71 71.83" style="fill:#ec448f"/><polygon points="171.4 37.78 171.46 40.05 173.41 37.73 171.4 37.78" style="fill:#ec448f"/><polygon points="170.2 41.01 173.16 42.58 171.4 37.78 170.2 41.01" style="fill:#d71d5b"/><polygon points="168.18 39.87 169.44 43.47 164.34 42.13 168.18 39.87" style="fill:#d71d5b"/><polygon points="171.08 48.13 168.44 47.94 171.27 45.28 171.08 48.13" style="fill:#d71d5b"/><polygon points="173.16 42.58 171.08 48.13 168.18 39.87 173.16 42.58" style="fill:#ec448f"/><polygon points="163.14 52.35 162.32 53.8 164.46 53.05 163.14 52.35" style="fill:#ec448f"/><polygon points="161.19 53.92 162.38 56.01 163.14 52.35 161.19 53.92" style="fill:#d71d5b"/><polygon points="160.37 52.48 159.74 55.19 157.91 51.98 160.37 52.48" style="fill:#d71d5b"/><polygon points="158.98 58.77 157.4 57.65 160.24 57.02 158.98 58.77" style="fill:#d71d5b"/><polygon points="162.38 56.01 158.98 58.77 160.37 52.48 162.38 56.01" style="fill:#ec448f"/><polygon points="146.88 56.33 145.62 58.59 148.89 57.4 146.88 56.33" style="fill:#ec448f"/><polygon points="143.85 58.84 145.74 62.05 146.88 56.33 143.85 58.84" style="fill:#d71d5b"/><polygon points="142.46 56.51 141.64 60.8 138.68 55.76 142.46 56.51" style="fill:#d71d5b"/><polygon points="140.45 66.34 137.93 64.64 142.34 63.63 140.45 66.34" style="fill:#d71d5b"/><polygon points="145.74 62.05 140.45 66.34 142.46 56.51 145.74 62.05" style="fill:#ec448f"/><polygon points="200.58 67.42 198.5 69.88 202.79 69.25 200.58 67.42" style="fill:#1e76bd"/><polygon points="196.3 69.69 197.81 74.09 200.58 67.42 196.3 69.69" style="fill:#194783"/><polygon points="195.22 66.59 193.08 71.58 190.75 64.7 195.22 66.59" style="fill:#194783"/><polygon points="190.25 78.06 187.6 75.36 193.27 75.17 190.25 78.06" style="fill:#194783"/><polygon points="197.81 74.09 190.25 78.06 195.22 66.59 197.81 74.09" style="fill:#1e76bd"/><polygon points="97.08 61.74 96.51 62.74 98.02 62.19 97.08 61.74" style="fill:#ec448f"/><polygon points="95.69 62.88 96.58 64.39 97.08 61.74 95.69 62.88" style="fill:#d71d5b"/><polygon points="95.06 61.8 94.62 63.83 93.23 61.42 95.06 61.8" style="fill:#d71d5b"/><polygon points="94.12 66.41 92.92 65.58 95 65.14 94.12 66.41" style="fill:#d71d5b"/><polygon points="96.58 64.39 94.12 66.41 95.06 61.8 96.58 64.39" style="fill:#ec448f"/><path d="M207,42.88" transform="translate(-3.21 0.01)" style="fill:none;stroke:#5daa46;stroke-width:1.0379999876022339px"/><path d="M212.5,33.81h0C212.56,33.74,212.5,33.74,212.5,33.81Z" transform="translate(-3.21 0.01)" style="fill:#1e76bd"/><path d="M231.75,47.67a19.42,19.42,0,0,0-2.39-4.47c-.89-1.26-3.66-2.84-5.86-4h0c-1.14-.57-2.27-1.64-2.59-1.77,0-.06,0-.06-.06-.12a.49.49,0,0,1-.07-.32c0-.13-.06-.19-.06-.31a2.85,2.85,0,0,0-.25-.63,26.46,26.46,0,0,0-2-3.66,5,5,0,0,1-.5-1.07,2.22,2.22,0,0,1-.13-1.14c.13-.88.32-1.82.51-2.71a1.8,1.8,0,0,0-.07-1,1.22,1.22,0,0,0-1.38-.69c-.38.06-.76.13-1-.44-.13-.25-.63-.19-.82,0a1,1,0,0,0-.19.38c-.12-.19-.31-.38-.38-.51-.25-.44-.44-.5-.88-.31s-.57.19-.75-.38c-.32-.88-.95-1.07-1.58-.44a1,1,0,0,1-.44.31c-.32.19-.63.38-1,.57-.06,0-.13.07-.19.07s-.06-.07-.13-.13-1.26-1.83-1.45-2.08c-1.19-1.83-5.73-7.38-7.12-9.08a11.59,11.59,0,0,1-2.71-7.44,20.28,20.28,0,0,0-.69-3.78.41.41,0,0,0-.32-.38c-.12,0-.25.07-.25.38,0,.63.13,3.72.06,4.29V7a.76.76,0,0,1-.12-.19c-.7-2.15-1.83-5.68-2.08-6.43-.13-.32-.25-.44-.38-.38s-.38.25-.32.5c.26,1.71.7,4.29.76,5.11V6c-.06-.06-.25-.32-.31-.25-.76-1.77-1.45-3.53-2.27-5.49a.08.08,0,0,1-.07.07h0v0c-.94,1.26,0,2.59-.06,4.16-.38-.94-.63-1.64-1-2.33h-.06c-.12,0-.31.06-.44.06A11.54,11.54,0,0,0,191,4.43c.57,2,1.26,3.85,1.83,5.8.38,1.39.19,1.89-.76,2a3.21,3.21,0,0,1-.76-.07,3.14,3.14,0,0,0-.75,0,1.56,1.56,0,0,0-1.58.89c2.27.75,4.48,1.7,6.75,2.26,1.7.45,5.73,5.17,6.68,6.75a4.58,4.58,0,0,1,.94,1.2,10.42,10.42,0,0,1,.82,1.76c-3,1.39-4.85,5.8-4.85,5.8l-.69-.38c-2.78-2-9-7.56-11.92-9.52-1.7-1.13-3-2.26-3.34-4.53-.38-2.46-1.07-4.86-1.64-7.32h-.06c-.82.26-1,1.26-1,2.34s-.12,1.7-.69,1.82a2.59,2.59,0,0,1-1.26-.25c-1.83-.75-3.66-1.7-5.49-2.46A13.15,13.15,0,0,0,171,10h-.13c-.19-.07-.63.31-.06.63s2.39,1.26,3.4,1.76c-1.39-.06-4.1-1.07-4.91-1-.26,0-.38.07-.38.19,0,.76,3.53,2,5.17,2.9.18.13.5.44.18.44H174c-.82-.19-3.28-.82-4.91-1.26h-.19c-.38,0-.76.32-.07.63s5.61,2.4,5.87,2.46.37.51-.13.57-3.15-.44-3.78-.51h-.19c-.51.07-.32.51,0,.51a19.5,19.5,0,0,0,3.59,1.07,10.49,10.49,0,0,1,7,3.53c2.14,2.27,8,7.75,10.27,9.9,2,1.89,3.72,4,5.68,5.92,0,0,4.72,3.72,5,3.91l.82.57L206.75,45c1.64,1.2,3.09,2.4,4.67,3.72a28.06,28.06,0,0,1,3.21,3.91,23.93,23.93,0,0,0,3.28,5.86c1,1.52,2,2.65,2.65,3.79a8.86,8.86,0,0,1,.25,7.81c-.88,2-4.79,5.74-5.36,9.77-.44,3.47,1.89,9,1.89,9s-.69,1.89-1.39,4.09a1.8,1.8,0,0,0-.06.32c-.88,2.58-2.27,9.26-2.77,10.71s-1,4-2.4,5.17a17,17,0,0,0-5.86,9.65c-.63,3.28-2,13.17-2,14.75v.63c-.06.44-.06.94-.12,1.39a5.88,5.88,0,0,1-.82,2.64,1.45,1.45,0,0,1-.63.57,6.13,6.13,0,0,1-.89.44,6.94,6.94,0,0,0-2.2,1.32,1.25,1.25,0,0,0-.38,1,6.21,6.21,0,0,0,1.13,3.91,4.25,4.25,0,0,1,.82,2.08,8.43,8.43,0,0,1-.25,3,14.06,14.06,0,0,0-.57,2.21c0,.13-.12.25-.18.38a1.67,1.67,0,0,0-.19.57,10.5,10.5,0,0,1-.26,1.38,2.21,2.21,0,0,0,.26,2.08c.19.32.56.32.88.38s.31-.25.38-.44a1.16,1.16,0,0,0,.12-.44,7.06,7.06,0,0,1,1.52-2.08c.37-.44.25-1.33.63-1.83s.44-.88.75-1.26a11.42,11.42,0,0,0,.82-1.51,5.2,5.2,0,0,1,.88,1.76,8.78,8.78,0,0,1,0,3.15c-.12.76-.31,1.52-.37,2.34,0,.12-.13.25-.19.44l-.19.63a12.64,12.64,0,0,1-.13,1.51,2.38,2.38,0,0,0,.51,2.14c.19.32.56.32.94.26s.32-.32.38-.51a2.62,2.62,0,0,1,.13-.44,6.58,6.58,0,0,1,1.38-2.33c.38-.51.13-1.39.44-2s.38-.94.63-1.38c.57-1.07,1.08-3.15,1.58-4.23a15.32,15.32,0,0,0,.82-2.39,33.16,33.16,0,0,0,1.13-6.49,14.07,14.07,0,0,1,.13-1.72c0-.19.32-2.14.32-2.39,0,0,.06-.32.18-1,.7-1.76,1.45-3.47,1.71-4.35a109.08,109.08,0,0,1,5.29-13.87c.82-1.38,2.52-2.39,3-3.91s1.14-1.7,4.92-8.06c5.93-10.72,5.11-17.59,5.17-20.74s3.34-14.25,3.72-18.16,0-10.08-.95-13.11h0l-.06-.31C234.24,52,232.16,48.81,231.75,47.67ZM203,16.85a.35.35,0,0,1,.19.25h0A.67.67,0,0,1,203,16.85Z" transform="translate(-3.21 0.01)" style="fill:#1e76bd"/><polygon points="330.69 100.55 329.17 103.06 324.52 105.16 325.41 101.17 330.69 100.55" style="fill:url(#linear-gradient)"/><polygon points="331.72 101.43 330.03 101.64 330.69 100.55 331.72 101.43" style="fill:url(#linear-gradient-2)"/><polygon points="329.17 103.06 324.05 102.11 325.65 97.3 329.17 103.06" style="fill:url(#linear-gradient-3)"/><polygon points="320.98 95.48 324.05 102.11 325.65 97.3 320.98 95.48" style="fill:url(#linear-gradient-4)"/><polygon points="329.17 103.06 324.52 105.16 324.05 102.11 329.17 103.06" style="fill:url(#linear-gradient-5)"/><polygon points="322.05 107.84 324.69 106.01 324.05 102.11 322.05 107.84" style="fill:url(#linear-gradient-6)"/><polygon points="324.05 102.11 320.16 96.59 321.68 97.01 324.05 102.11" style="fill:url(#linear-gradient-7)"/><path d="M353.27,126.45a.52.52,0,0,1,.05.37.43.43,0,0,1-.23.28l-.63.34-1.27.68a2.35,2.35,0,0,1,0,2.4,5.22,5.22,0,0,1-1.65,1.69,4,4,0,0,1-1.88.73h-.1a2,2,0,0,1-.34,0,1,1,0,0,1-.89-.93c-.2-1.21,1-2.61,3.51-4.16-.18-.23-.41-.52-.73-.86l-.37-.44c-.07-.11-.16-.22-.27-.37a3.18,3.18,0,0,1-.23-.4.79.79,0,0,1-.1-.33,2.37,2.37,0,0,1,.05-.88,2.85,2.85,0,0,1,.34-.73,3.24,3.24,0,0,1,.52-.59,5,5,0,0,1,.57-.46c.19-.11.38-.22.57-.31a3.12,3.12,0,0,1,.42-.18l.2-.09a.48.48,0,0,1,.37,0,.45.45,0,0,1,.24.28.59.59,0,0,1,0,.37.49.49,0,0,1-.28.23l-.24.1a5.28,5.28,0,0,0-.53.27,7.33,7.33,0,0,0-.64.45,2.21,2.21,0,0,0-.47.62,1.22,1.22,0,0,0-.14.73c0,.06.12.29.73,1a12.86,12.86,0,0,1,.82,1l1.32-.73.62-.33a.37.37,0,0,1,.34-.06A.46.46,0,0,1,353.27,126.45ZM350.4,130a1.49,1.49,0,0,0,0-1.39c-2.19,1.32-3.21,2.4-3.09,3.19,0,0,0,.11.15.14a2.27,2.27,0,0,0,1.46-.46,4.31,4.31,0,0,0,1.51-1.49Z" transform="translate(-3.21 0.01)" style="fill:#cebc6d"/><path d="M346.45,125.85a.34.34,0,0,1,.08.47.3.3,0,0,1-.14.11.62.62,0,0,1-.37.11,2.37,2.37,0,0,0-1.73.67,6.44,6.44,0,0,0-1.46,1.9,13.67,13.67,0,0,0-1,2.52.44.44,0,0,1-.41.32h-.08a.49.49,0,0,1-.45-.21c-.35-.51,0-2.92,1.13-7.42a.4.4,0,0,1,.23-.26.74.74,0,0,1,.39,0,.51.51,0,0,1,.34.17.33.33,0,0,1,.09.31c-.34,1.35-.61,2.61-.84,3.77a6.67,6.67,0,0,1,1.58-1.81,3.36,3.36,0,0,1,2.3-.73A.56.56,0,0,1,346.45,125.85Z" transform="translate(-3.21 0.01)" style="fill:#cebc6d"/><path d="M340,128.2a.54.54,0,0,1-.08.41l-.32.43a7.44,7.44,0,0,1-.59.67,9,9,0,0,1-.82.81,4,4,0,0,1-1,.62,2.79,2.79,0,0,1-1.05.32,1.91,1.91,0,0,1-.94-.21,1.43,1.43,0,0,1-.73-1.17,2.91,2.91,0,0,1-2.14,1.4,2,2,0,0,1-.35,0,1.42,1.42,0,0,1-1.14-1.42,4,4,0,0,1,.47-1.95,8.83,8.83,0,0,1,1.29-2,3.77,3.77,0,0,1,1.46-1.13,1.28,1.28,0,0,1,1.1,0,1.61,1.61,0,0,1,.44.38.67.67,0,0,1,.26-.21.47.47,0,0,1,.4,0,.65.65,0,0,1,.3.29.47.47,0,0,1,0,.4c-.16.49-.35,1-.56,1.46a10.57,10.57,0,0,0-.47,2c-.05.53,0,.87.17,1a.67.67,0,0,0,.63,0,3.42,3.42,0,0,0,.73-.39,6.31,6.31,0,0,0,.73-.64c.24-.23.46-.48.68-.73s.33-.42.45-.61a.6.6,0,0,1,.34-.21.47.47,0,0,1,.4.08A.59.59,0,0,1,340,128.2Zm-5-1.3.08-.21a.72.72,0,0,1-.12-.21.79.79,0,0,0-.34-.55h-.06a.28.28,0,0,0-.13,0,4.07,4.07,0,0,0-1.63,1.71A4.23,4.23,0,0,0,332,130a.39.39,0,0,0,.31.4c.36.08.8-.21,1.29-.89A14,14,0,0,0,335.07,126.9Z" transform="translate(-3.21 0.01)" style="fill:#cebc6d"/><path d="M334.45,104.67a12.06,12.06,0,0,1,1.08,9c-1,3.68-3.24,7.22-6.86,10.77a3,3,0,0,0-2-1.35,3.63,3.63,0,0,0-3.27,1,7.78,7.78,0,0,0-1.73,2.37h0c-.06.11-.11.23-.16.33h0a2.41,2.41,0,0,0-1.22-.11c-.07-.23-.14-.46-.23-.68,5.54-4.3,8.74-8.44,9.89-12.58a8.58,8.58,0,0,0-1-6.71h0l.27-.18-.13-.67,3.43-1.56Z" transform="translate(-3.21 0.01)" style="fill:url(#linear-gradient-8)"/><path d="M330.23,128.44a.51.51,0,0,1-.12.38,8.86,8.86,0,0,1-.73.77c-.28.28-.68.68-1.21,1.13a9,9,0,0,1-1.68,1.19,4.08,4.08,0,0,1-1.66.52h-.12a1.88,1.88,0,0,1-1.21-.4,2.23,2.23,0,0,1-.78-1.33,4.11,4.11,0,0,1,0-1.71,7.79,7.79,0,0,1,.57-1.75,6,6,0,0,1,1.33-1.86,1.85,1.85,0,0,1,1.69-.58,1.16,1.16,0,0,1,1,.86,1.54,1.54,0,0,1-.28,1.08,5.55,5.55,0,0,1-1,1.2c-.43.39-.84.73-1.21,1s-.73.56-1.11.83a1.65,1.65,0,0,0,.46,1.39.83.83,0,0,0,.8.15,4.11,4.11,0,0,0,1.08-.45,7.76,7.76,0,0,0,1.2-.83c.41-.34.79-.68,1.12-1s.64-.64.89-.93a.52.52,0,0,1,.37-.19.5.5,0,0,1,.4.13A.51.51,0,0,1,330.23,128.44Zm-4.61-1.63a2.39,2.39,0,0,0,.68-.9H326a1.43,1.43,0,0,0-.85.52,5.26,5.26,0,0,0-.87,1.33h0c-.07.15-.14.3-.2.45a15.25,15.25,0,0,0,1.5-1.4Z" transform="translate(-3.21 0.01)" style="fill:#cebc6d"/><path d="M322.66,97.68l3.28,4.6-.42,1.19a9.11,9.11,0,0,0-2.07-.79,8.29,8.29,0,0,0-5.6.24,15.6,15.6,0,0,0-5.19,4.21l-2.19,2.43-.68-3.14a15.25,15.25,0,0,0-2.4-6.14,8.25,8.25,0,0,0-4.73-2.87h-.05a9.39,9.39,0,0,0-6.07.51V99l-.32.36a71.34,71.34,0,0,0-5.16,6.82,24.88,24.88,0,0,0,1.67,10.5,91.27,91.27,0,0,0,7.42,15.09l.67,1.17h0l1.57,2.82-2.7,1.63-2.36-4a100.1,100.1,0,0,1-8.3-16.5,37.53,37.53,0,0,1-1.46-5c-1,1.82-1.9,3.72-2.74,5.62a95.09,95.09,0,0,0-6.66,22.89l-.19,1.09h-4.89l.22-1.46a91.33,91.33,0,0,1,6.27-22.47,87.48,87.48,0,0,1,7.58-14.07,15.23,15.23,0,0,1,.41-2h0a10,10,0,0,1,.64-1.73H266.93V95.12h24.84a13.91,13.91,0,0,1,1.87-1.26,13.58,13.58,0,0,1,10-1.27,12.39,12.39,0,0,1,7,4.27,15.72,15.72,0,0,1,2.48,4.94,15.88,15.88,0,0,1,4.64-3.13A11.32,11.32,0,0,1,322.66,97.68Z" transform="translate(-3.21 0.01)" style="fill:url(#linear-gradient-9)"/><path d="M321.24,128.79a1.31,1.31,0,0,1,0,.28.57.57,0,0,1-.11.25.49.49,0,0,1-.22.18,14.29,14.29,0,0,0-1.94,1,17.91,17.91,0,0,1-.8,5.39,22.7,22.7,0,0,1-2,4.37,20.82,20.82,0,0,1-2.73,3.67,6.74,6.74,0,0,1-2.63,1.91,2.78,2.78,0,0,1-.49.08h-.1a1.39,1.39,0,0,1-1-.34,2.69,2.69,0,0,1-.73-2.63,13.24,13.24,0,0,1,1.54-4.12,27.18,27.18,0,0,1,3.37-4.88,22.31,22.31,0,0,1,4.47-4,9,9,0,0,0-.43-2.83c-.22.27-.6.78-1.15,1.55s-1.07,1.45-1.45,1.93a9.55,9.55,0,0,1-1.14,1.23,2.34,2.34,0,0,1-1.05.64.94.94,0,0,1-.73-.16c-.68-.5-.73-1.81-.12-4a25.91,25.91,0,0,1,1-2.81.58.58,0,0,1,.73-.3.6.6,0,0,1,.29.3.51.51,0,0,1,0,.42,21.36,21.36,0,0,0-1.15,3.64c-.3,1.36-.19,1.75-.09,1.85.24-.05.92-.67,2.83-3.38.63-.87,1.07-1.46,1.32-1.73a1.2,1.2,0,0,1,.73-.48.63.63,0,0,1,.46.12c.58.45.92,1.54,1,3.33a12.55,12.55,0,0,1,1.56-.77.51.51,0,0,1,.42,0,.55.55,0,0,1,.3.28Zm-4.05,6.75a15.62,15.62,0,0,0,.73-4.29A22.79,22.79,0,0,0,314,135a25.74,25.74,0,0,0-3,4.44,12.13,12.13,0,0,0-1.35,3.72c-.13.83,0,1.39.31,1.63a.59.59,0,0,0,.55,0,5.65,5.65,0,0,0,2.19-1.62,21.07,21.07,0,0,0,2.55-3.47,19.82,19.82,0,0,0,1.93-4.15Z" transform="translate(-3.21 0.01)" style="fill:#cebc6d"/><path d="M310.92,133.74a2.61,2.61,0,0,0,.28.17,28.47,28.47,0,0,0-2.76,4.12l-.19.38q-2.25,1.28-4.49,2.51l-1.4.79-2.05-3.33,1.45-.83c2.77-1.57,5.57-3.17,8.29-4.8a2.87,2.87,0,0,0,.84,1Z" transform="translate(-3.21 0.01)" style="fill:url(#linear-gradient-10)"/><path d="M329.65,127.91a.54.54,0,0,0-.37.19c-.28.32-.57.63-.88.93s-.73.67-1.13,1a8.17,8.17,0,0,1-1.19.83,4.32,4.32,0,0,1-1.09.45.81.81,0,0,1-.79-.15,1.63,1.63,0,0,1-.47-1.39c.39-.27.73-.55,1.11-.82s.78-.64,1.21-1a5.55,5.55,0,0,0,1-1.2,1.55,1.55,0,0,0,.29-1.08,1.18,1.18,0,0,0-1-.86,1.86,1.86,0,0,0-1.69.58,6.32,6.32,0,0,0-1.33,1.86,7.22,7.22,0,0,0-.56,1.76,4.11,4.11,0,0,0,0,1.71,2.26,2.26,0,0,0,.77,1.33,2,2,0,0,0,1.21.39h.13a4,4,0,0,0,1.65-.51,9,9,0,0,0,1.69-1.19c.52-.47.92-.85,1.21-1.13l.73-.77a.58.58,0,0,0,.11-.38.49.49,0,0,0-.18-.38A.48.48,0,0,0,329.65,127.91Z" transform="translate(-3.21 0.01)" style="fill:none;stroke:#cebc6d;stroke-miterlimit:10"/><path d="M326.29,125.91c0,.13-.16.39-.68.9a16.53,16.53,0,0,1-1.54,1.35c.07-.15.13-.3.21-.46h0a5.26,5.26,0,0,1,.86-1.32,1.47,1.47,0,0,1,.86-.53h.09Z" transform="translate(-3.21 0.01)" style="fill:none;stroke:#cebc6d;stroke-miterlimit:10"/><path d="M324.17,136.8v-2.67h1.77v.55h-1.17v.52h1.1v.51h-1.08v.56H326v.54Z" transform="translate(-3.21 0.01)" style="fill:#cebc6d"/><path d="M327.86,134.83a.61.61,0,0,0-.47-.23c-.17,0-.37.06-.37.27s.16.23.41.31.83.27.83.8a.92.92,0,0,1-.92.9h-.1a1.46,1.46,0,0,1-1-.38l.42-.43a.81.81,0,0,0,.58.28c.2,0,.37-.08.37-.29s-.2-.27-.55-.38-.68-.28-.68-.77.53-.83,1-.83a1.35,1.35,0,0,1,.88.33Z" transform="translate(-3.21 0.01)" style="fill:#cebc6d"/><path d="M329.77,134.69v2.11h-.64v-2.11h-.73v-.56h2.19v.56Z" transform="translate(-3.21 0.01)" style="fill:#cebc6d"/><path d="M332.5,136.8v-2l-.5.38-.34-.45.88-.65h.58v2.68Z" transform="translate(-3.21 0.01)" style="fill:#cebc6d"/><path d="M335.81,135.84l-.65,1h-.77l.68-.91h0a.6.6,0,0,1-.19,0A.86.86,0,0,1,334,135h0a1.06,1.06,0,0,1,2.1,0A1.46,1.46,0,0,1,335.81,135.84Zm-.73-1.26a.4.4,0,0,0-.42.38h0v0a.4.4,0,0,0,.38.42h0a.43.43,0,0,0,0-.85Z" transform="translate(-3.21 0.01)" style="fill:#cebc6d"/><path d="M337.43,136.87a1,1,0,0,1-1-.67L337,136a.44.44,0,0,0,.43.32.37.37,0,0,0,.4-.34h0v-.07c0-.32-.29-.41-.55-.41a2.85,2.85,0,0,0-.65.11l.06-1.52h1.64v.54h-1.07v.42h.27a.87.87,0,0,1,1,.75v.11a.94.94,0,0,1-.92.95h-.14Z" transform="translate(-3.21 0.01)" style="fill:#cebc6d"/><path d="M339.79,136.8v-2l-.5.38-.34-.45.88-.65h.58v2.68Z" transform="translate(-3.21 0.01)" style="fill:#cebc6d"/></svg>