<svg id="Layer_1" data-name="Layer 1" xmlns="http://www.w3.org/2000/svg" xmlns:xlink="http://www.w3.org/1999/xlink" viewBox="0 0 552.77 415.48"><defs><style>.cls-1{fill:url(#New_Gradient_Swatch_4);}.cls-2{fill:#fff;}.cls-3{fill:#034985;}.cls-4{fill:#3164ae;}.cls-5{fill:#57c1da;}</style><linearGradient id="New_Gradient_Swatch_4" x1="241.34" y1="179.23" x2="647.81" y2="422.27" gradientTransform="translate(253.18 -194.06) rotate(36)" gradientUnits="userSpaceOnUse"><stop offset="0" stop-color="#034985"/><stop offset="0.38" stop-color="#2588c4"/><stop offset="0.73" stop-color="#50bfd5"/><stop offset="1" stop-color="#00afa2"/></linearGradient></defs><path class="cls-1" d="M389.72,78.29c21.39-3.68,42.81,14.12,63.19,17.07,21.12,3,46.71-7.72,65.44,1.54,18.93,9.35,25.93,36.28,41.07,51,15,14.57,42.15,20.78,52.08,39.66,9.59,18.23-.48,44,3.2,65.41s21.79,42.33,18.85,62.71c-3,21.12-26.59,36.05-35.84,54.79-9.35,18.92-7,46.65-21.66,61.78s-42.27,13.39-61.16,23.33c-18.23,9.59-32.47,33.52-53.86,37.2s-42.81-14.12-63.19-17.06c-21.12-3.06-46.7,7.71-65.44-1.55-18.92-9.34-25.93-36.28-41.06-51-15-14.57-42.16-20.78-52.09-39.66-9.59-18.23.48-44-3.2-65.41s-21.79-42.33-18.84-62.7c3-21.13,26.58-36.07,35.84-54.8,9.34-18.92,6.94-46.65,21.65-61.78s42.28-13.39,61.16-23.33c18.22-9.59,32.47-33.52,53.86-37.2" transform="translate(-148.68 -77.79)"/><path class="cls-2" d="M396.32,116.65A171.36,171.36,0,1,1,256.5,314.58,171.35,171.35,0,0,1,396.32,116.65" transform="translate(-148.68 -77.79)"/><path class="cls-3" d="M425,444.92a159.37,159.37,0,0,1-26.68-316.44l.08.5-.08-.5c86.59-14.9,169.16,43.43,184.06,130a159.34,159.34,0,0,1-130,184.06A161.42,161.42,0,0,1,425,444.92Zm.42-317.76a158.37,158.37,0,1,0,156,131.52C568.18,181.68,501.08,127.16,425.46,127.16Z" transform="translate(-148.68 -77.79)"/><path class="cls-3" d="M398.53,260.07,397,265.5a9.12,9.12,0,0,1,6.78,2.85,9.83,9.83,0,0,1,0,13.72,9.09,9.09,0,0,1-6.78,2.86h-6.15l-5.43,17a9.78,9.78,0,0,1-17.86,1.65,9,9,0,0,1-.57-7.36l3.57-11.29h-5.71l-5.43,17a9.16,9.16,0,0,1-4.65,5.72,9,9,0,0,1-7.35.57,9.15,9.15,0,0,1-5.72-4.64,9,9,0,0,1-.57-7.36l3.57-11.29h-.14a9.28,9.28,0,0,1-6.93-2.86,9.83,9.83,0,0,1,0-13.72,9.31,9.31,0,0,1,6.93-2.85h6.14l1.72-5.43a9.53,9.53,0,0,1-9.72-9.72,9.06,9.06,0,0,1,2.79-6.64,9.39,9.39,0,0,1,6.93-2.79h6l5.29-16.86a8.82,8.82,0,0,1,4.78-5.64,10,10,0,0,1,7.5-.65,8.88,8.88,0,0,1,5.5,4.72,10,10,0,0,1,.79,7.29l-3.72,11.14h5.86l5.15-16.86a10.23,10.23,0,0,1,4.93-5.71,10.09,10.09,0,0,1,13.07,4,9.62,9.62,0,0,1,.71,7.43l-3.57,11.14a9.48,9.48,0,0,1,6.86,2.79,9,9,0,0,1,2.86,6.64,9.3,9.3,0,0,1-2.86,6.93,9.48,9.48,0,0,1-6.86,2.79Zm-20.15,0h-5.86l-1.43,5.43h5.58Z" transform="translate(-148.68 -77.79)"/><path class="cls-3" d="M469.46,195.26a10.79,10.79,0,0,1,2.92,4.93,21,21,0,0,1,.73,5.47v78.85h12.42a12.14,12.14,0,0,1,12.22,12.23,11.58,11.58,0,0,1-3.55,8.49,11.83,11.83,0,0,1-8.67,3.56H436.24a11.52,11.52,0,0,1-8.58-3.56,11.73,11.73,0,0,1-3.46-8.49,12,12,0,0,1,3.46-8.67,11.52,11.52,0,0,1,8.58-3.56h12.6V233l-7.49,7.49a11.26,11.26,0,0,1-8.48,3.65,11.85,11.85,0,0,1-8.67-3.65,11.13,11.13,0,0,1-3.65-8.4,11.72,11.72,0,0,1,3.65-8.58l28.11-28.29a12.82,12.82,0,0,1,17.15,0Z" transform="translate(-148.68 -77.79)"/><path class="cls-4" d="M349.56,168.59l4-2.4c2.5-1.51,5-1.11,6.63,1.62l4.93,8.16c1.65,2.73.81,5.23-1.68,6.73l-3.91,2.36Zm11.19,12,.9-.54c.94-.56,1.11-1.44.46-2.52l-4.72-7.81c-.65-1.09-1.51-1.34-2.45-.77l-.89.54Z" transform="translate(-148.68 -77.79)"/><path class="cls-4" d="M361,162l3.06-1.55,8.7,17.16-3.07,1.55Z" transform="translate(-148.68 -77.79)"/><path class="cls-4" d="M375.61,171.31c.43,1,1.22,1.4,2,1.06a1.48,1.48,0,0,0,.68-2.08c-.51-1.19-1.38-1.92-4.34-3.06-2.73-1-4.41-2.32-5.23-4.27a4.52,4.52,0,0,1,2.53-6.11,4.29,4.29,0,0,1,5.89,2.38l.5,1.19-3,1.26-.43-1c-.4-.94-1.1-1.26-1.81-1a1.31,1.31,0,0,0-.64,1.89c.42,1,1.29,1.66,4.07,2.72s4.59,2.39,5.52,4.6a4.68,4.68,0,0,1-2.63,6.3,4.41,4.41,0,0,1-6.07-2.45l-.61-1.45,3-1.26Z" transform="translate(-148.68 -77.79)"/><path class="cls-4" d="M393.61,169.61l-3.32,1.07-1.7-3.38-2.79.91.6,3.73-3.12,1L381,153.47l3.11-1Zm-8.28-4.09,2.07-.66-3.15-6.18Z" transform="translate(-148.68 -77.79)"/><path class="cls-4" d="M390.33,150.63l4.61-1a4.26,4.26,0,0,1,5.51,3.47l.14.62a4.35,4.35,0,0,1-1,4.23,4.22,4.22,0,0,1,3.06,3.48l.3,1.34a4.38,4.38,0,0,1-3.58,5.59l-4.77,1.08Zm5,7.12.89-.2c1.07-.24,1.52-1,1.24-2.25l-.3-1.34c-.28-1.23-1-1.74-2.09-1.5l-.88.2Zm1.84,8.18,1.15-.26c1.08-.24,1.52-1,1.24-2.25l-.42-1.91c-.28-1.23-1-1.74-2.09-1.5l-1.15.26Z" transform="translate(-148.68 -77.79)"/><path class="cls-4" d="M403.09,148l3.4-.51,2.82,19-3.4.5Z" transform="translate(-148.68 -77.79)"/><path class="cls-4" d="M411.89,166.2,410.24,147l3.34-.29L415,162.6l3.78-.33.28,3.32Z" transform="translate(-148.68 -77.79)"/><path class="cls-4" d="M420,146.34l3.44-.09.49,19.24-3.43.08Z" transform="translate(-148.68 -77.79)"/><path class="cls-4" d="M432.43,149.75l-.61,15.9-3.41-.13.62-15.91-2.94-.11.13-3.32,9.28.36-.13,3.32Z" transform="translate(-148.68 -77.79)"/><path class="cls-4" d="M439.49,159.08l-2-12.4,3.58.44.69,7.81,2.61-7.4,3.36.41-4.95,11.58-.88,7.09-3.33-.41Z" transform="translate(-148.68 -77.79)"/><path class="cls-4" d="M459.37,162.79l3.16.84-.76,2.87a4.45,4.45,0,0,1-5.64,3.25,4.38,4.38,0,0,1-3.28-5.62L455.53,154a4.55,4.55,0,0,1,5.77-3.33,4.28,4.28,0,0,1,3.21,5.49l-.71,2.71-3.16-.84.67-2.55a1.31,1.31,0,0,0-.86-1.79,1.32,1.32,0,0,0-1.66,1.12l-2.69,10.15a1.32,1.32,0,0,0,.89,1.8c.77.2,1.39-.2,1.63-1.13Z" transform="translate(-148.68 -77.79)"/><path class="cls-4" d="M471.28,174.45,468,173.26l.72-3.71-2.76-1-1.82,3.32-3.07-1.11L471.17,154l3.08,1.11Zm-4-8.3,2,.73,1.29-6.81Z" transform="translate(-148.68 -77.79)"/><path class="cls-4" d="M478.33,177.75l1.24-7.56-1.24-.58-3.13,6.67-3-1.42,8.17-17.42,4,1.87c2.81,1.32,3.89,3.62,2.45,6.68l-.88,1.89a4,4,0,0,1-3.19,2.58l-1.23,8.77Zm1.19-10.68.94.45c1,.46,1.82.12,2.36-1l.89-1.89a1.63,1.63,0,0,0-.73-2.47l-.94-.44Z" transform="translate(-148.68 -77.79)"/><path class="cls-4" d="M482.43,179.83l9.63-16.65L498.6,167l-1.66,2.87-3.64-2.1-2.25,3.88,2.93,1.69L492.42,176l-2.92-1.7L487,178.63l3.76,2.18-1.66,2.88Z" transform="translate(-148.68 -77.79)"/><polygon class="cls-5" points="423.03 376.58 519.05 403.18 518.16 343.89 552.77 302.5 499.68 288.88 422.56 345.34 423.03 376.58"/><polygon class="cls-3" points="422.72 356.46 423.03 376.58 494.51 371.5 439.74 352.29 422.72 356.46"/><polygon class="cls-5" points="137.27 380.9 39.16 410.43 38.32 355.16 0 311.66 60.59 291.51 137.27 380.9"/><polyline class="cls-3" points="136.99 362.12 132.79 349.72 65.91 377.98"/><path class="cls-4" d="M185.9,360S398,289.52,665.77,352.78c.84,2.4-22.58,96.5-22.58,96.5s-185.18-58.1-428.6,6.48C212.16,454.2,185.9,360,185.9,360Z" transform="translate(-148.68 -77.79)"/><polygon class="cls-3" points="65.91 377.98 137.27 380.9 136.99 362.12 65.91 377.98"/><path class="cls-2" d="M294.5,389.08l-7.62,1.23L283.53,383l-9.93,1.61-.87,8-7.21,1.17L270.76,356l6.9-1.12Zm-20.44-10.16,7.2-1.17-5.7-12.39Z" transform="translate(-148.68 -77.79)"/><path class="cls-2" d="M311.24,350.21l7.25-.9,3.05,24.74c.91,7.35-3.53,12.62-10.47,13.48s-12.41-3-13.31-10.39l-3.08-24.89,7.4-.91,3.08,24.94c.42,3.36,2.41,5.06,5.21,4.72s4.37-2.49,3.95-5.85Z" transform="translate(-148.68 -77.79)"/><path class="cls-2" d="M328.71,357.49c-.52-5.77,3.91-10.09,9.83-10.62a11.1,11.1,0,0,1,11.77,6.9l-5.76,2.93s-1.62-4.05-5.3-3.72a3.26,3.26,0,0,0-3.25,3.49c.22,2.49,2.29,3.87,6.12,5.73,4.87,2.39,9,5.52,9.49,10.77.59,6.54-4,10.77-10.29,11.34-9.39.84-12.65-8-12.65-8l5.76-2.92s2.35,5.13,6.29,4.77a3.64,3.64,0,0,0,3.61-4.09c-.24-2.75-2.57-4.16-6.73-6.2C332.84,365.54,329.14,362.21,328.71,357.49Z" transform="translate(-148.68 -77.79)"/><path class="cls-2" d="M371.13,351.69,373,381.45l-7.39.46-1.82-29.77-7.65.47-.41-6.66,22.64-1.38.41,6.66Z" transform="translate(-148.68 -77.79)"/><path class="cls-2" d="M403.6,380.14,398.26,367a9.16,9.16,0,0,1-1.24.09l-2.71.09.43,13.24-7.34.24-1.21-36.48,11.52-.38c7.24-.24,12.35,4.5,12.57,11.17a10.79,10.79,0,0,1-5.31,9.83l6.92,15.05Zm-9.48-18.63,3.33-.11a5.42,5.42,0,0,0,5.45-5.81,5.33,5.33,0,0,0-5.76-5.45l-3.39.12Z" transform="translate(-148.68 -77.79)"/><path class="cls-2" d="M445.21,379.66l-7.72,0-2.17-7.76-10.06,0-2.1,7.78-7.3,0,11.06-36.54,7,0ZM426.6,366.44l7.29,0-3.7-13.12Z" transform="translate(-148.68 -77.79)"/><path class="cls-2" d="M452.07,343.31l7.4.15-.62,29.77,11.62.24-.14,6.72-19-.4Z" transform="translate(-148.68 -77.79)"/><path class="cls-2" d="M503.9,381.62l-7.7-.35-1.79-7.86L484.36,373l-2.48,7.66-7.29-.33,12.84-35.94,7,.31ZM486,367.5l7.29.33-3.05-13.29Z" transform="translate(-148.68 -77.79)"/><path class="cls-2" d="M511.25,354.73c.4-5.77,5.45-9.34,11.38-8.93a11.1,11.1,0,0,1,10.53,8.67l-6.15,2s-1-4.24-4.65-4.5a3.26,3.26,0,0,0-3.76,2.93c-.17,2.49,1.65,4.19,5.14,6.62,4.43,3.13,8,6.88,7.68,12.14-.46,6.55-5.66,10-11.95,9.57-9.42-.65-11.24-9.87-11.24-9.87l6.15-2s1.51,5.43,5.46,5.71a3.65,3.65,0,0,0,4.21-3.47c.19-2.76-1.88-4.52-5.67-7.19C514.05,363.34,510.92,359.47,511.25,354.73Z" transform="translate(-148.68 -77.79)"/><path class="cls-2" d="M542,347.8l7.59.66-3.15,36.36-7.59-.66Z" transform="translate(-148.68 -77.79)"/><path class="cls-2" d="M582,388.39l-7.67-.8L573,379.64l-10-1.05-2.93,7.5-7.26-.76,14.95-35.12,7,.72Zm-17.07-15.15,7.26.76-2.26-13.45Z" transform="translate(-148.68 -77.79)"/><path class="cls-2" d="M298.12,413l8.94-1.91.57,2.68-6,1.29.53,2.45,5.7-1.22.57,2.68-5.7,1.22.57,2.67,6.37-1.36.57,2.67-9.27,2Z" transform="translate(-148.68 -77.79)"/><path class="cls-2" d="M309.92,410.46l3.95-.76,7.37,8.11h0l-1.75-9.19,2.91-.55L325,421.28l-3.81.73-7.56-8.31h0l1.79,9.4-2.91.56Z" transform="translate(-148.68 -77.79)"/><path class="cls-2" d="M329.74,406.83l2.42-.4,8,12.31-3.3.55-1.61-2.62-5.16.85-.64,3-3.22.53Zm1.77,3.67-.93,4.39,3.24-.53Z" transform="translate(-148.68 -77.79)"/><path class="cls-2" d="M339.5,405.25l5-.72a14.58,14.58,0,0,1,1.76-.13,4.82,4.82,0,0,1,1.64.27,2.91,2.91,0,0,1,1.27.86,3.16,3.16,0,0,1,.69,1.69,2.81,2.81,0,0,1-.36,2,3.51,3.51,0,0,1-1.51,1.3v0a3.86,3.86,0,0,1,1.25.19,3.19,3.19,0,0,1,1,.57,3,3,0,0,1,.74.9,3.43,3.43,0,0,1,.38,1.17,3.26,3.26,0,0,1-.2,1.82,3.58,3.58,0,0,1-1,1.31,5.11,5.11,0,0,1-1.52.85,9.19,9.19,0,0,1-1.75.45l-5.45.78Zm3.71,4.9,2.12-.31a2.91,2.91,0,0,0,.66-.17,1.68,1.68,0,0,0,.55-.33,1.32,1.32,0,0,0,.36-.51,1.46,1.46,0,0,0,.07-.7,1.25,1.25,0,0,0-.28-.66,1.23,1.23,0,0,0-.52-.36,2.41,2.41,0,0,0-.67-.12,4.13,4.13,0,0,0-.71,0l-2,.29Zm.79,5.51,2.63-.38a2.85,2.85,0,0,0,.68-.18,1.85,1.85,0,0,0,.59-.35,1.53,1.53,0,0,0,.39-.55,1.36,1.36,0,0,0,.07-.76,1.17,1.17,0,0,0-.34-.73,1.58,1.58,0,0,0-.66-.36,3,3,0,0,0-.8-.09,6.26,6.26,0,0,0-.78.05l-2.22.32Z" transform="translate(-148.68 -77.79)"/><path class="cls-2" d="M352,403.49l2.94-.37,1.34,10.63,5.45-.69.34,2.72-8.39,1.06Z" transform="translate(-148.68 -77.79)"/><path class="cls-2" d="M362.28,402.21l9.08-1,.3,2.72-6.14.66.27,2.5,5.8-.63.29,2.72-5.8.63.3,2.72,6.47-.7.3,2.72-9.43,1Z" transform="translate(-148.68 -77.79)"/><path class="cls-2" d="M374.32,400.91l4.47-.37,3.82,8.48h0l2.37-9,4.45-.37L390.6,413l-3,.25L386.78,403h0l-2.66,10.58-2.25.19-4.25-10h0l.86,10.28-2.95.25Z" transform="translate(-148.68 -77.79)"/><path class="cls-2" d="M392.56,399.45l9.12-.55.17,2.73-6.17.38.15,2.5,5.82-.35.17,2.73-5.82.35.16,2.73,6.51-.39.16,2.73-9.46.57Z" transform="translate(-148.68 -77.79)"/><path class="cls-2" d="M404.61,398.74l4-.15,6.07,9.12h0l-.35-9.34,3-.12.51,13.45-3.87.15-6.23-9.35h0l.37,9.57-3,.11Z" transform="translate(-148.68 -77.79)"/><path class="cls-2" d="M423,400.77l-3.84.07,0-2.62,10.64-.18,0,2.62-3.84.06.19,10.83-3,.05Z" transform="translate(-148.68 -77.79)"/><path class="cls-2" d="M441.56,398.06l2.45,0,5.7,13.52-3.35,0-1.12-2.87-5.23-.06-1.15,2.84-3.27,0Zm1.1,3.93L441,406.15l3.29,0Z" transform="translate(-148.68 -77.79)"/><path class="cls-2" d="M449.58,398.12l3.23.12,1.83,8.7h0l3.13-8.52,2.76.1,2.46,9h0l2.59-8.77,3,.11-4.43,13.3-2.64-.1L459,402.61h0l-3.3,9.19-2.55-.09Z" transform="translate(-148.68 -77.79)"/><path class="cls-2" d="M474.18,399.2l2.45.16,5,13.79-3.34-.21-1-2.92-5.21-.32-1.3,2.77-3.26-.2Zm.9,4-1.9,4.07,3.29.21Z" transform="translate(-148.68 -77.79)"/><path class="cls-2" d="M484,399.86l5.19.44a8.37,8.37,0,0,1,1.92.36,4.52,4.52,0,0,1,1.56.8,3.29,3.29,0,0,1,1,1.34,4.14,4.14,0,0,1,.24,2,3.92,3.92,0,0,1-.94,2.35,3.29,3.29,0,0,1-2.26,1.08l2.93,5.95-3.54-.3-2.35-5.59-1.46-.12-.45,5.35-2.95-.24Zm2.49,5.8,1.74.14c.27,0,.55,0,.85.05a2.67,2.67,0,0,0,.82-.11,1.26,1.26,0,0,0,.94-1.22,1.45,1.45,0,0,0-.14-.84,1.38,1.38,0,0,0-.49-.5,2.3,2.3,0,0,0-.72-.28,4.86,4.86,0,0,0-.81-.13l-1.93-.16Z" transform="translate(-148.68 -77.79)"/><path class="cls-2" d="M496.51,400.93l4.43.46a12.6,12.6,0,0,1,3,.69,7,7,0,0,1,2.4,1.42,5.73,5.73,0,0,1,1.49,2.27,7.06,7.06,0,0,1,.3,3.19,6.27,6.27,0,0,1-.91,2.79,6.2,6.2,0,0,1-1.87,1.91,7.29,7.29,0,0,1-2.54,1,9,9,0,0,1-2.9.13l-4.82-.5Zm1.83,11,1.53.16a8.19,8.19,0,0,0,1.92,0,4,4,0,0,0,1.59-.53,3.28,3.28,0,0,0,1.15-1.16,4.53,4.53,0,0,0,.57-1.88,3.69,3.69,0,0,0-.19-1.75,3.31,3.31,0,0,0-.87-1.3,4.2,4.2,0,0,0-1.38-.86,6.7,6.7,0,0,0-1.75-.43l-1.74-.18Z" transform="translate(-148.68 -77.79)"/><path class="cls-2" d="M517.24,406.6a2.09,2.09,0,0,0-.89-.79,3.29,3.29,0,0,0-1.13-.36,3,3,0,0,0-.67,0,2.51,2.51,0,0,0-.67.15,1.31,1.31,0,0,0-.55.37,1.18,1.18,0,0,0-.27.61,1.09,1.09,0,0,0,.34,1,4.49,4.49,0,0,0,1.07.69c.44.21.92.42,1.43.64a6.47,6.47,0,0,1,1.39.83,3.2,3.2,0,0,1,1.22,3.18,4.25,4.25,0,0,1-.66,1.89,3.79,3.79,0,0,1-1.29,1.23,4.81,4.81,0,0,1-1.74.61,7.51,7.51,0,0,1-2,0,7.2,7.2,0,0,1-2.36-.7,5.91,5.91,0,0,1-1.91-1.54l2.38-2a3.1,3.1,0,0,0,1,1.08,3.21,3.21,0,0,0,1.39.51,3.54,3.54,0,0,0,.73,0,2.5,2.5,0,0,0,.69-.18,1.34,1.34,0,0,0,.53-.37,1.1,1.1,0,0,0,.26-.6,1.14,1.14,0,0,0-.35-1,4.17,4.17,0,0,0-1.08-.74c-.44-.22-.93-.45-1.45-.68a6.52,6.52,0,0,1-1.42-.85,3.62,3.62,0,0,1-1-1.24,3.11,3.11,0,0,1-.24-1.85,4.09,4.09,0,0,1,.66-1.83,4.16,4.16,0,0,1,1.3-1.21,5,5,0,0,1,1.74-.62,7,7,0,0,1,1.94,0,7.47,7.47,0,0,1,2.14.59,5.08,5.08,0,0,1,1.77,1.32Z" transform="translate(-148.68 -77.79)"/><path class="cls-2" d="M524.24,415.4l4.63-3a8,8,0,0,0,.71-.55A1.19,1.19,0,0,0,530,411a1,1,0,0,0-.26-.9,1.49,1.49,0,0,0-.86-.44,1.27,1.27,0,0,0-1,.24,1.63,1.63,0,0,0-.54.9l-2.2-.5a3.87,3.87,0,0,1,.56-1.37,3,3,0,0,1,.93-.88,3.38,3.38,0,0,1,1.24-.43,5.11,5.11,0,0,1,1.46,0,4.89,4.89,0,0,1,1.31.4,3.15,3.15,0,0,1,1,.76,2.79,2.79,0,0,1,.58,1.09,3.52,3.52,0,0,1,0,1.42,3.69,3.69,0,0,1-.24.9,3.19,3.19,0,0,1-.4.7,3.93,3.93,0,0,1-.53.55,7.26,7.26,0,0,1-.63.46l-3.6,2.27,4.66.7-.3,2-7.32-1.1Z" transform="translate(-148.68 -77.79)"/><path class="cls-2" d="M533.25,413.8a10.49,10.49,0,0,1,.48-1.87,5.94,5.94,0,0,1,.89-1.65,3.8,3.8,0,0,1,1.4-1.08,3.47,3.47,0,0,1,2-.18,3.36,3.36,0,0,1,2.82,2.29,5.51,5.51,0,0,1,.33,1.84,12.05,12.05,0,0,1-.14,1.92,11.45,11.45,0,0,1-.49,1.87,5.69,5.69,0,0,1-.89,1.65,3.72,3.72,0,0,1-1.4,1.08,3.47,3.47,0,0,1-2,.18,3.37,3.37,0,0,1-1.84-.81,3.56,3.56,0,0,1-1-1.47,5.57,5.57,0,0,1-.32-1.85A11,11,0,0,1,533.25,413.8Zm2.22.36c-.05.28-.09.61-.13,1a4.81,4.81,0,0,0,0,1.14,2.44,2.44,0,0,0,.35,1,1.39,1.39,0,0,0,1.87.3,2.22,2.22,0,0,0,.65-.82,4.7,4.7,0,0,0,.39-1.07c.08-.38.15-.71.19-1s.09-.61.13-1a4.81,4.81,0,0,0,0-1.14,2.49,2.49,0,0,0-.35-1,1.26,1.26,0,0,0-.87-.52,1.23,1.23,0,0,0-1,.22,2.42,2.42,0,0,0-.64.82,4.76,4.76,0,0,0-.38,1.08C535.58,413.56,535.51,413.89,535.47,414.16Z" transform="translate(-148.68 -77.79)"/><path class="cls-2" d="M546.3,413.18l-2.43,1.47-1-1.68,3.92-2.26,2.07.36L547,421.53l-2.13-.38Z" transform="translate(-148.68 -77.79)"/><path class="cls-2" d="M551.69,414.38a2.84,2.84,0,0,1,.52-1.21,2.67,2.67,0,0,1,.92-.75,3.43,3.43,0,0,1,1.22-.32,5.11,5.11,0,0,1,1.39.08,5.39,5.39,0,0,1,1.32.44,3.19,3.19,0,0,1,1,.76,2.59,2.59,0,0,1,.57,1,2.73,2.73,0,0,1,0,1.31,2.35,2.35,0,0,1-.75,1.37,2.51,2.51,0,0,1-1.46.6v0a2.64,2.64,0,0,1,1.27,1.19,2.6,2.6,0,0,1,.18,1.72,2.78,2.78,0,0,1-.56,1.27,2.71,2.71,0,0,1-1,.79,3.78,3.78,0,0,1-1.28.34,4.87,4.87,0,0,1-1.42-.08,4.79,4.79,0,0,1-1.35-.46,3.54,3.54,0,0,1-1.06-.79,2.7,2.7,0,0,1-.62-1.11,2.77,2.77,0,0,1,0-1.38,2.51,2.51,0,0,1,2.43-2.16v0a2.55,2.55,0,0,1-1.14-1.11A2.38,2.38,0,0,1,551.69,414.38Zm1.15,5a1.24,1.24,0,0,0,.22,1,1.44,1.44,0,0,0,1,.59,1.47,1.47,0,0,0,1.14-.18,1.24,1.24,0,0,0,.57-.85,1.28,1.28,0,0,0-.21-1,1.51,1.51,0,0,0-1-.58,1.48,1.48,0,0,0-1.13.17A1.28,1.28,0,0,0,552.84,419.34Zm1-4.22a1.13,1.13,0,0,0,.19.89,1.3,1.3,0,0,0,.87.52,1.32,1.32,0,0,0,1-.16,1.15,1.15,0,0,0,.32-1.63,1.47,1.47,0,0,0-1.86-.36A1.08,1.08,0,0,0,553.84,415.12Z" transform="translate(-148.68 -77.79)"/></svg>