<svg id="I_heart_ndis" data-name="I heart ndis" xmlns="http://www.w3.org/2000/svg" xmlns:xlink="http://www.w3.org/1999/xlink" viewBox="0 0 724.21 724.22"><defs><style>.cls-1{fill:none;}.cls-2{clip-path:url(#clip-path);}.cls-3{fill:#6b2975;}.cls-4{fill:#8cc63f;}.cls-5{fill:#fff;}.cls-6{fill:#6b2976;}</style><clipPath id="clip-path" transform="translate(-2.34 -1.47)"><rect class="cls-1" x="1.44" y="1.23" width="725.96" height="725.92"/></clipPath></defs><g class="cls-2"><path class="cls-3" d="M353.6,1.47C461.15,1.64,554,39.59,623.48,110.68A360.32,360.32,0,0,1,726.54,365.84C725.3,563.73,565,726.9,362.07,725.68,161.39,724.47,1.69,561.37,2.34,362.14,2.65,267.06,40,174.1,111.22,105,181.63,36.64,266.52,2.86,353.6,1.47" transform="translate(-2.34 -1.47)"/></g><path class="cls-4" d="M437.4,135.18c2.36-2.48,4.65-5.05,7.19-7.38,8.47-7.78,17.9-14,28.9-17.57,16-5.2,31.39-3.45,46.49,3.57,6.46,3,11.48,7.63,16.16,12.74,9.59,10.46,16.69,22.37,20.44,36.12,4.2,15.41,3.43,30.73-1.33,45.89-4,12.78-10.43,24.34-18.22,35.17-10.29,14.28-22.49,26.79-35.71,38.35-19,16.64-39.74,30.94-61.15,44.29-2.21,1.38-3.67,1.39-5.91,0-18.41-11.47-36.32-23.64-53.1-37.41-14.83-12.17-28.65-25.35-40.41-40.57-8.67-11.24-15.93-23.27-20.67-36.73a83.78,83.78,0,0,1-4.86-34.33A79,79,0,0,1,326.71,142a98.22,98.22,0,0,1,17.38-21.23,41.3,41.3,0,0,1,10.73-7.06,61.38,61.38,0,0,1,59.93,2.68,88.84,88.84,0,0,1,20.89,17.1c.43.47.86.93,1.3,1.39a2.42,2.42,0,0,0,.46.27" transform="translate(-2.34 -1.47)"/><path class="cls-5" d="M380.58,582.28c-1.11,1-2.18,2-3.3,3a50.1,50.1,0,0,1-23.66,11.14,59.27,59.27,0,0,1-32.1-2.43c-12.7-4.7-21.8-13.51-28.12-25.35A81.09,81.09,0,0,1,285,542.34a127.21,127.21,0,0,1-.34-35.24c1.57-12.52,5-24.46,11.83-35.21,8.32-13.13,19.9-21.82,35.24-25,12.2-2.52,24.14-1.88,35.46,3.92a53.17,53.17,0,0,1,8.84,5.79c.41.33.71.89,1.58.83V389.29c0-3.57.38-4,4-4.63a61.42,61.42,0,0,1,9.28-.64,174,174,0,0,1,18.41.36,15.47,15.47,0,0,1,4.15.79,2.68,2.68,0,0,1,2.14,3c0,.56,0,1.13,0,1.69v166.3a22.49,22.49,0,0,0,.29,4c.52,2.85,1.76,4.13,4.62,4.81a16.48,16.48,0,0,0,3.36.31c1.94.07,2.71.66,3,2.56a28.61,28.61,0,0,1,.41,4.42,148.77,148.77,0,0,1-.32,15.66,21.07,21.07,0,0,1-.37,2.08,3.5,3.5,0,0,1-2.57,2.8,52.05,52.05,0,0,1-10.28,2.41,50.29,50.29,0,0,1-14.34.21c-8.16-1.26-14.59-5-18.4-12.62a3.22,3.22,0,0,0-.45-.51" transform="translate(-2.34 -1.47)"/><path class="cls-5" d="M274.2,218.66v71.39c0,2.89-.25,2.56,2.64,2.57h14.83c3.55.05,4.37.84,4.85,4.42a65.71,65.71,0,0,1,.36,9.51c-.06,5,.27,10-.35,15,0,.28,0,.56-.09.84-.47,3.31-1.33,4-4.7,4H205.31c-.49,0-1,0-1.48,0a2.76,2.76,0,0,1-2.68-2,14.86,14.86,0,0,1-.78-4.57c-.24-6.92-.23-13.83,0-20.75a15.13,15.13,0,0,1,.67-4.16,2.79,2.79,0,0,1,2.74-2.22c1.06,0,2.11-.1,3.17-.1h14.19c1.65,0,1.65,0,1.68-1.59,0-.35,0-.71,0-1.06q0-71.28,0-142.57c0-2.94.4-2.51-2.61-2.53-5.08,0-10.17,0-15.25,0-2.81,0-3.74-.83-4.26-3.62a33,33,0,0,1-.45-6.11c0-5.51,0-11,.08-16.52a24.89,24.89,0,0,1,.54-4.62c.46-2.23,1.41-2.93,3.68-3,.56,0,1.13,0,1.7,0H292c3.07,0,4,.83,4.41,3.9a47.64,47.64,0,0,1,.45,6.75c0,5.08,0,10.17-.08,15.25a21.75,21.75,0,0,1-.57,4.82c-.58,2.44-1.49,3.15-4,3.15-5.23,0-10.45,0-15.68,0h-1.48c-.63,0-.88.32-.87.92s0,1.13,0,1.7v71.21" transform="translate(-2.34 -1.47)"/><path class="cls-5" d="M178.38,462.62c1.06-1,2-1.92,2.86-2.78A51.4,51.4,0,0,1,209,446.33a61,61,0,0,1,30.28,2.52c14.72,5.2,23.68,15.79,27.91,30.6A79.93,79.93,0,0,1,270,500.37c.4,29.72.08,59.45.17,89.17,0,2.91-.64,3.76-3.51,4.35a30.05,30.05,0,0,1-4.83.58c-7.34.34-14.67.29-22,0a23.44,23.44,0,0,1-5.64-.83,2.6,2.6,0,0,1-2.13-2.76c0-.63,0-1.27,0-1.91q0-39.51,0-79a87.19,87.19,0,0,0-1.07-14.33c-1.4-8.33-6.22-13.35-14.4-15.21a41.34,41.34,0,0,0-22.32,1.24c-8,2.6-12,8.1-12.54,16.45-.31,5.29-.49,10.57-.5,15.87q0,37.39,0,74.78c0,.49,0,1,0,1.48-.06,2-.58,2.8-2.52,3.39a29,29,0,0,1-7.54.93q-10,.33-20.11-.09a32.5,32.5,0,0,1-4.62-.52c-2.74-.51-3.26-1.22-3.26-4q0-37.82,0-75.63c0-11.57-.24-23.15-.64-34.71-.3-8.74-.62-17.48-1.38-26.2-.22-2.56.55-3.67,3-4.28a33.29,33.29,0,0,1,7.77-.79c6.21,0,12.42-.33,18.62.31.42,0,.85.06,1.26.13,3.28.52,4.42,1.5,5.09,4.75.62,2.93,1,5.87,1.55,9.08" transform="translate(-2.34 -1.47)"/><path class="cls-5" d="M552.14,445.58c12.15,0,23.84,2.12,34.88,7.38a61.3,61.3,0,0,1,10.14,6.1c2.08,1.55,2.44,2.64,1.67,5.1a25.4,25.4,0,0,1-2.54,5.34c-2.34,3.94-4.75,7.84-7.17,11.74a15,15,0,0,1-2.66,3.28c-1.54,1.4-2.81,1.59-4.6.54-2.37-1.39-4.73-2.8-7.21-4a47.47,47.47,0,0,0-21-4.95c-4.94,0-9.86.46-14.49,2.51a14.29,14.29,0,0,0-5,3.54,9.08,9.08,0,0,0,1.1,13.63,28.8,28.8,0,0,0,7.78,4.23c5.52,2.17,11.24,3.71,16.89,5.46a122.11,122.11,0,0,1,19.91,7.65,47,47,0,0,1,13.55,10,34.33,34.33,0,0,1,8.9,20.61c1.24,13.93-2.69,26.24-12.09,36.66-6.43,7.12-14.56,11.47-23.69,14.1a81.64,81.64,0,0,1-19.83,3,94.51,94.51,0,0,1-32.56-4.28,67.86,67.86,0,0,1-22-11.44c-2.53-2-2.89-3.19-1.94-6.24a12,12,0,0,1,.43-1.19,119.38,119.38,0,0,1,9.48-17,11.42,11.42,0,0,1,.92-1.16c2.28-2.6,3.58-2.78,6.52-.9A70.73,70.73,0,0,0,534,565.92a44,44,0,0,0,21.14-1.19,18.87,18.87,0,0,0,6.3-3.39c5.3-4.38,5.12-11.23-.43-15.31-3.52-2.59-7.61-4-11.71-5.29-6.57-2.11-13.29-3.78-19.82-6-7.16-2.46-14.08-5.42-20.16-10.05-8.82-6.71-13.52-15.65-14.66-26.61a46.27,46.27,0,0,1,2.76-22.24c3.68-9.26,10.11-16.2,18.59-21.29a64.2,64.2,0,0,1,25.32-8.35,83,83,0,0,1,10.79-.6" transform="translate(-2.34 -1.47)"/><path class="cls-5" d="M442.05,521.41V453.86c0-3.78.43-4.4,4.19-4.95a55,55,0,0,1,7.59-.53c6.7,0,13.41-.31,20.1.32a19.54,19.54,0,0,1,3.94.73,2.85,2.85,0,0,1,2.26,2.94c0,.56,0,1.13,0,1.69V588.94c0,3.88-.66,4.59-4.51,5.18a55.17,55.17,0,0,1-7.81.5c-7.12.09-14.25.33-21.35-.49-.28,0-.56,0-.84-.09-2.88-.52-3.56-1.29-3.57-4.24q0-15.88,0-31.76Z" transform="translate(-2.34 -1.47)"/><path class="cls-4" d="M460.5,432.71a24.35,24.35,0,1,1,24.56-23.9c-.24,13-11.16,24.18-24.56,23.9" transform="translate(-2.34 -1.47)"/><path class="cls-6" d="M377.64,520.12c0,7.48,0,15,0,22.44a48.79,48.79,0,0,1-.58,8,13.62,13.62,0,0,1-7,10.06,33.12,33.12,0,0,1-12.6,4A34.71,34.71,0,0,1,341.21,563c-6-2.16-10-6.37-12.9-11.89a46.75,46.75,0,0,1-4.66-15.29,94.18,94.18,0,0,1,.8-30.52,46.09,46.09,0,0,1,3.82-11.83c5-10.23,13.27-15.2,24.59-15.13,10,.07,17.78,4.71,24.17,12.08a3.21,3.21,0,0,1,.6,2.37v27.32Z" transform="translate(-2.34 -1.47)"/></svg>